PathFileType	4	(X/Y/Z)	C:\Users\Biomechanik\SynologyDrive\AlexP\Athlete_03\Athlete_3_25_03_31\Deadlift_bar_01\marker_experimental.trc
DataRate	CameraRate	NumFrames	NumMarkers	Units	OrigDataRate	OrigDataStartFrame	OrigNumFrames
200.000000	200.000000	4	55	mm	200.000000	1098	1464
Frame#	Time	BL			BR			GLAB			RFHD			LFHD			C7			T6			SPINMOL			SPINM2			SPINM3			T12			BELTOL			BELT2			BELT3			SACROL			SACR2			SACR3			LTHOL			LTH2			LTH3			LSHAOL			LSHA2			LSHA3			LHEE			LTOE			LM5			RTHOL			RTH2			RTH3			RSHAOL			RSHA2			RSHA3			RHEE			RTOE			RM5			STRN			XIPH			LACR			LUAOL			LUA2			LUA3			LLAOL			LLA2			LLA3			LWRR			LWRU			RACR			RUAOL			RUA2			RUA3			RLAOL			RLA2			RLA3			RWRR			RWRU			
		X1	Y1	Z1	X2	Y2	Z2	X3	Y3	Z3	X4	Y4	Z4	X5	Y5	Z5	X6	Y6	Z6	X7	Y7	Z7	X8	Y8	Z8	X9	Y9	Z9	X10	Y10	Z10	X11	Y11	Z11	X12	Y12	Z12	X13	Y13	Z13	X14	Y14	Z14	X15	Y15	Z15	X16	Y16	Z16	X17	Y17	Z17	X18	Y18	Z18	X19	Y19	Z19	X20	Y20	Z20	X21	Y21	Z21	X22	Y22	Z22	X23	Y23	Z23	X24	Y24	Z24	X25	Y25	Z25	X26	Y26	Z26	X27	Y27	Z27	X28	Y28	Z28	X29	Y29	Z29	X30	Y30	Z30	X31	Y31	Z31	X32	Y32	Z32	X33	Y33	Z33	X34	Y34	Z34	X35	Y35	Z35	X36	Y36	Z36	X37	Y37	Z37	X38	Y38	Z38	X39	Y39	Z39	X40	Y40	Z40	X41	Y41	Z41	X42	Y42	Z42	X43	Y43	Z43	X44	Y44	Z44	X45	Y45	Z45	X46	Y46	Z46	X47	Y47	Z47	X48	Y48	Z48	X49	Y49	Z49	X50	Y50	Z50	X51	Y51	Z51	X52	Y52	Z52	X53	Y53	Z53	X54	Y54	Z54	X55	Y55	Z55	

1099	5.49	318.2005004882812	713.2142333984376	-2223.9140625	327.1605834960938	706.343994140625	-202.3250274658203	320.12109375	1616.518920898438	-1189.888549804688	268.9051208496094	1642.256713867188	-1127.596801757812	277.4161682128906	1638.631225585938	-1263.18505859375	91.23453521728516	1440.02978515625	-1203.189086914062	68.18798065185547	1261.1591796875	-1209.282104492188	68.95328521728516	1230.457275390625	-1231.226684570312	65.05197906494141	1221.097290039062	-1181.809936523438	78.51401519775391	1166.370483398438	-1217.129150390625	90.06195068359375	1119.2421875	-1213.824584960938	63.87954330444336	1096.737426757812	-1228.512329101562	64.69050598144531	1092.874389648438	-1178.536499023438	54.81864547729492	1033.826904296875	-1208.662475585938	48.22975158691406	972.0609741210939	-1231.353271484375	50.66213989257812	968.0960083007814	-1179.99951171875	28.84470367431641	912.3839111328126	-1208.870361328125	133.1888122558594	686.5432739257814	-1397.10498046875	84.21183013916016	631.5559082031251	-1366.266357421875	131.2560272216797	626.1183471679689	-1383.8701171875	122.4720458984375	326.8939514160157	-1400.702026367188	78.88896179199219	261.0216979980469	-1388.757202148438	127.9776458740234	265.1347656250001	-1397.929565429688	76.89756011962891	68.2467575073243	-1318.119995117188	293.2936096191406	48.49097824096688	-1333.040405273438	242.21923828125	28.85124588012704	-1432.057983398438	124.7204437255859	697.8198852539064	-1024.654418945312	179.9278564453125	641.9865722656251	-1012.465637207031	133.7838439941406	637.1935424804689	-1030.703125	107.2765274047852	342.7616882324219	-1019.215881347656	143.6518859863281	273.2268981933594	-1013.935852050781	97.69725036621094	281.6102905273438	-1030.603759765625	78.986328125	60.96451187133796	-1118.49169921875	292.0566101074219	48.12938308715827	-1095.305908203125	234.2190551757812	38.46203613281256	-998.598876953125	274.8173522949219	1369.715942382812	-1203.8017578125	334.3905639648438	1243.166259765625	-1203.359130859375	182.6212921142578	1397.587890625	-1383.570190429688	221.6096649169922	1241.595458984375	-1485.752075195312	226.5693359375	1178.140869140625	-1501.435424804688	266.2282409667969	1195.511352539062	-1473.96142578125	283.7344055175781	979.1470336914064	-1503.061645507812	245.7030792236328	910.4997558593751	-1493.458129882812	294.398681640625	918.2401733398439	-1502.053955078125	332.8031616210938	817.0643920898439	-1502.905151367188	324.0989685058594	812.4125976562501	-1424.3818359375	187.5312194824219	1397.621459960938	-1030.371215820312	218.8589324951172	1242.501342773438	-934.7393188476561	258.86474609375	1189.151489257812	-943.3187255859374	214.4441070556641	1179.308471679688	-916.8427124023436	274.7455139160156	965.8803100585938	-922.6531372070311	335.5906982421875	914.525390625	-913.604248046875	286.8143615722656	904.1698608398438	-921.1072998046875	337.06787109375	822.1513671875	-918.0923461914062	318.8195495605469	798.6730346679689	-992.8884887695312	
1100	5.495	318.3054504394531	713.5004272460939	-2223.916015625	327.0121765136719	706.2536010742188	-202.3319396972656	320.0573120117188	1616.502075195312	-1189.938842773438	268.8695068359375	1642.241821289062	-1127.634155273438	277.3377380371094	1638.617919921875	-1263.245483398438	91.16310882568359	1439.98291015625	-1203.238525390625	68.15968322753906	1261.107177734375	-1209.37744140625	68.94671630859375	1230.40673828125	-1231.325805664062	65.0289306640625	1221.045288085938	-1181.9052734375	78.52368927001953	1166.325805664062	-1217.225219726562	90.09622192382812	1119.195678710938	-1213.917602539062	63.93238830566406	1096.66259765625	-1228.6171875	64.72575378417969	1092.822265625	-1178.64013671875	54.90579605102539	1033.765625	-1208.758056640625	48.34985733032227	971.9950561523439	-1231.44287109375	50.7764778137207	968.0455932617189	-1180.082153320312	28.96487617492676	912.3352050781251	-1208.95703125	133.4077911376953	686.5310668945314	-1397.156860351562	84.4002685546875	631.5660400390626	-1366.327514648438	131.4403991699219	626.1239624023439	-1383.918090820312	122.5857467651367	326.8977050781251	-1400.72265625	78.97589111328125	261.0431518554688	-1388.78857421875	128.0655059814453	265.1444396972657	-1397.944091796875	76.9010009765625	68.2512741088868	-1318.1181640625	293.3089904785156	48.49348068237313	-1333.028930664062	242.2226867675781	28.8547134399415	-1432.055541992188	124.7801818847656	697.8118896484376	-1024.693481445312	179.9706268310547	641.9801635742189	-1012.482238769531	133.8469848632812	637.1904907226564	-1030.75	107.2966003417969	342.7753906250001	-1019.269714355469	143.6560211181641	273.2352600097657	-1013.965942382812	97.71223449707031	281.6212158203126	-1030.656372070312	79.00115203857422	60.97652816772468	-1118.504638671875	292.0581359863281	48.12882232666022	-1095.308715820312	234.2176971435547	38.4738502502442	-998.5960083007812	274.7769470214844	1369.735595703125	-1203.818725585938	334.358154296875	1243.176147460938	-1203.363037109375	182.5976715087891	1397.6240234375	-1383.60009765625	221.6956787109375	1241.713134765625	-1485.793212890625	226.7094116210938	1178.266967773438	-1501.512939453125	266.3255310058594	1195.639770507812	-1473.949096679688	283.7870178222656	979.2843017578126	-1503.130249023438	245.7668762207031	910.6212158203126	-1493.56103515625	294.4884338378906	918.3585815429689	-1502.114868164062	332.8831481933594	817.1751098632814	-1502.961059570312	324.1607055664062	812.5415649414064	-1424.4345703125	187.4048004150391	1397.603759765625	-1030.4169921875	218.8265380859375	1242.542602539062	-934.7666015624999	258.8401489257812	1189.182983398438	-943.3452758789061	214.4229278564453	1179.330200195312	-916.8700561523436	274.7296447753906	965.9248046875	-922.6625976562499	335.6001586914062	914.5679321289062	-913.5985107421875	286.8016357421875	904.2152099609375	-921.1058959960938	337.050537109375	822.18896484375	-918.08642578125	318.8197631835938	798.7221069335939	-992.8776245117188	
1101	5.5	318.4079895019531	713.7780761718751	-2223.92236328125	326.8611450195312	706.142578125	-202.3437042236328	319.9898376464844	1616.484130859375	-1189.98193359375	268.83056640625	1642.221801757812	-1127.665283203125	277.2557983398438	1638.60546875	-1263.296264648438	91.0936279296875	1439.931396484375	-1203.285766601562	68.13321685791016	1261.052612304688	-1209.469116210938	68.94242858886719	1230.355590820312	-1231.4208984375	65.00827026367188	1220.9921875	-1181.997924804688	78.53536987304688	1166.280151367188	-1217.318359375	90.13325500488281	1119.148193359375	-1214.01171875	63.98892211914062	1096.586181640625	-1228.723266601562	64.76461029052734	1092.76806640625	-1178.74609375	55.00863647460938	1033.701904296875	-1208.852661132812	48.47507095336914	971.9316406250001	-1231.536987304688	50.89811706542969	967.9984130859376	-1180.16845703125	29.08660507202148	912.2911987304689	-1209.045532226562	133.6374359130859	686.5206909179689	-1397.212524414062	84.59550476074219	631.5762939453126	-1366.39794921875	131.6334228515625	626.1282958984376	-1383.971069335938	122.7005996704102	326.9005126953126	-1400.744750976562	79.06306457519531	261.0652160644532	-1388.81982421875	128.1534118652344	265.1536560058595	-1397.959594726562	76.90382385253906	68.25523376464852	-1318.117065429688	293.3268127441406	48.49759674072273	-1333.016235351562	242.2256927490234	28.8579807281495	-1432.0537109375	124.8444519042969	697.8037109375001	-1024.731567382812	180.0165557861328	641.9726562500001	-1012.498962402344	133.9118194580078	637.1865844726564	-1030.79541015625	107.3185958862305	342.7876892089844	-1019.3193359375	143.6623687744141	273.2421264648438	-1013.994262695312	97.72807312011719	281.6310729980469	-1030.703857421875	79.01632690429688	60.9866027832032	-1118.5146484375	292.0594177246094	48.12788009643561	-1095.310791015625	234.2159423828125	38.48585891723639	-998.5910034179688	274.7388000488281	1369.754272460938	-1203.83203125	334.3301391601562	1243.18359375	-1203.361572265625	182.5735778808594	1397.65380859375	-1383.628662109375	221.7752380371094	1241.819091796875	-1485.8330078125	226.8387298583984	1178.382202148438	-1501.59033203125	266.4183959960938	1195.758056640625	-1473.939086914062	283.8268127441406	979.4161987304689	-1503.200073242188	245.821533203125	910.7346801757814	-1493.663208007812	294.5684204101562	918.4685668945314	-1502.178344726562	332.9561767578125	817.2778930664064	-1503.02099609375	324.2153930664062	812.6616210937501	-1424.4892578125	187.2769775390625	1397.582153320312	-1030.458740234375	218.7881774902344	1242.57666015625	-934.7905273437499	258.8099365234375	1189.206176757812	-943.3596801757811	214.3916473388672	1179.344848632812	-916.8965454101561	274.7023620605469	965.9585571289062	-922.6746215820311	335.5929870605469	914.6011962890625	-913.5943603515625	286.7770690917969	904.2500610351562	-921.1087646484375	337.0223693847656	822.2174682617188	-918.0810546875	318.81201171875	798.7604980468751	-992.8729248046875	
1102	5.505	318.5083618164062	714.0468139648439	-2223.933349609375	326.7075500488281	706.0111694335938	-202.360366821289	319.9185791015625	1616.465087890625	-1190.017700195312	268.787841796875	1642.196411132812	-1127.690307617188	277.1703796386719	1638.593383789062	-1263.337158203125	91.02642059326172	1439.875732421875	-1203.3310546875	68.10865020751953	1260.99560546875	-1209.557373046875	68.94036102294922	1230.304077148438	-1231.512084960938	64.98992156982422	1220.937744140625	-1182.087768554688	78.54924011230469	1166.233642578125	-1217.40869140625	90.17302703857422	1119.099609375	-1214.106567382812	64.04914093017578	1096.5087890625	-1228.830932617188	64.80696105957031	1092.7119140625	-1178.853637695312	55.12311553955078	1033.635986328125	-1208.947387695312	48.60442352294922	971.8707275390626	-1231.6357421875	51.02555084228516	967.9534912109376	-1180.25927734375	29.20998191833496	912.2504272460939	-1209.13671875	133.8761749267578	686.5123291015626	-1397.2705078125	84.79583740234375	631.5865478515626	-1366.47607421875	131.8336029052734	626.1312866210939	-1384.028564453125	122.8168182373047	326.9026489257814	-1400.768188476562	79.15089416503906	261.0877990722657	-1388.85107421875	128.2417755126953	265.1624145507814	-1397.976196289062	76.90625	68.25888824462899	-1318.116333007812	293.346923828125	48.50315475463875	-1333.002197265625	242.2285919189453	28.86077499389657	-1432.052368164062	124.912467956543	697.7958374023439	-1024.768920898438	180.0652313232422	641.9642333984376	-1012.515991210938	133.9779510498047	637.1820068359376	-1030.83984375	107.3419952392578	342.7988281250001	-1019.36474609375	143.6703796386719	273.2477416992188	-1014.020629882812	97.74435424804688	281.6401977539063	-1030.746459960938	79.03170013427734	60.99472045898445	-1118.521850585938	292.0602722167969	48.12661361694342	-1095.31201171875	234.2138214111328	38.49763107299811	-998.583984375	274.7028198242188	1369.771850585938	-1203.842041015625	334.3061828613281	1243.189208984375	-1203.355224609375	182.5497436523438	1397.677368164062	-1383.65576171875	221.8482971191406	1241.913208007812	-1485.871215820312	226.9565734863281	1178.486328125	-1501.665893554688	266.5067443847656	1195.865234375	-1473.931762695312	283.8562927246094	979.5415649414064	-1503.270629882812	245.8674926757812	910.8400878906251	-1493.764892578125	294.6389465332031	918.5697631835939	-1502.244018554688	333.0225830078125	817.3724975585939	-1503.084594726562	324.2628784179688	812.7723999023439	-1424.545776367188	187.1483917236328	1397.556518554688	-1030.496459960938	218.7434234619141	1242.602783203125	-934.8110961914061	258.7737121582031	1189.221435546875	-943.3620605468749	214.350341796875	1179.351928710938	-916.9229125976561	274.6632995605469	965.9810180664062	-922.6896362304686	335.5679321289062	914.62451171875	-913.5921020507812	286.7403259277344	904.2738037109375	-921.1163940429688	336.9832153320312	822.2364501953125	-918.0765380859375	318.796630859375	798.7876586914064	-992.8745727539062	
